<?xml version="1.0" encoding="iso-8859-1"?>
<!-- Generator: Adobe Illustrator 19.0.0, SVG Export Plug-In . SVG Version: 6.00 Build 0)  -->
<svg version="1.1" id="Capa_1" xmlns="http://www.w3.org/2000/svg" xmlns:xlink="http://www.w3.org/1999/xlink" x="0px" y="0px"
	 viewBox="0 0 512 512" style="enable-background:new 0 0 512 512;" xml:space="preserve">
<g>
	<g>
		<path d="M512,287c0-24.813-20.187-45-45-45s-45,20.187-45,45c0,7.377,1.796,14.339,4.956,20.489
			c-5.144,2.363-9.971,5.447-14.308,9.217c-5.966,5.187-10.797,11.46-14.285,18.41C391.588,333.1,384.421,332,377,332
			c-18.507,0-36.214,6.894-49.813,18.957C311.936,339.083,292.781,332,272,332c-7.113,0-14.118,0.835-20.943,2.464
			c-10.485-12.75-24.333-22.726-40.206-28.348c0.095-1.694,0.149-3.399,0.149-5.116c0-11.373-2.622-23.434-7.501-34.903
			C225.995,244.273,240,213.744,240,180c0-26.983-8.954-51.913-24.044-71.979C230.73,96.923,240,79.279,240,60
			c0-33.084-26.916-60-60-60c-8.284,0-15,6.716-15,15s6.716,15,15,15c16.542,0,30,13.458,30,30c0,11.002-6.03,20.938-15.297,26.16
			C174.19,69.796,148.219,60,120,60s-54.19,9.796-74.703,26.16C36.03,80.938,30,71.002,30,60c0-16.542,13.458-30,30-30
			c8.284,0,15-6.716,15-15S68.284,0,60,0C26.916,0,0,26.916,0,60c0,19.279,9.27,36.923,24.044,48.021C8.954,128.087,0,153.017,0,180
			c0,33.788,14.042,64.354,36.59,86.183C32.262,276.873,30,288.366,30,300c0,39.987,26.448,73.608,61.147,85.878
			C91.051,387.583,91,389.291,91,391c0,49.682,41.151,91,91,91c7.158,0,14.123-0.845,20.803-2.432
			C219.801,500.058,244.921,512,272,512c29.939,0,56.506-14.698,72.877-37.254C354.864,479.47,365.862,482,377,482
			c36.23,0,66.54-25.824,73.496-60.032C450.997,421.98,451.497,422,452,422c33.084,0,60-26.916,60-60
			c0-15.684-6.056-29.976-15.944-40.677C505.799,313.062,512,300.745,512,287z M195,150c6.116,0,15,11.687,15,30s-8.884,30-15,30
			c-6.116,0-15-11.687-15-30S188.884,150,195,150z M45,210c-6.116,0-15-11.687-15-30s8.884-30,15-30s15,11.687,15,30
			S51.116,210,45,210z M52.303,239.237C73.944,234.711,90,210.321,90,180s-16.056-54.711-37.697-59.237
			C68.812,101.92,93.039,90,120,90s51.188,11.92,67.697,30.763C166.056,125.289,150,149.679,150,180s16.056,54.711,37.697,59.237
			C171.188,258.08,146.961,270,120,270S68.812,258.08,52.303,239.237z M60,300c0-5.094,0.652-10.145,1.911-15.029
			C79.134,294.54,98.94,300,120,300c21.19,0,41.11-5.528,58.407-15.207C180.09,290.332,181,295.873,181,301
			c0,33.084-26.916,60-60,60C87.935,361,60,333.065,60,300z M182,452c-33.065,0-61-27.935-61-61
			c37.368,0,69.486-22.894,83.075-55.39C226.376,344.925,242,367.269,242,392C242,425.084,215.084,452,182,452z M272,482
			c-15.012,0-29.12-5.511-39.968-15.225C256.117,450.607,272,423.125,272,392c0-10.321-1.842-20.357-5.195-29.774
			c1.72-0.147,3.452-0.226,5.195-0.226c33.084,0,60,26.916,60,60S305.084,482,272,482z M377,452c-6.611,0-12.971-1.404-18.805-4.098
			C360.666,439.696,362,431.001,362,422c0-18.04-5.339-34.854-14.515-48.954C355.597,366.01,366.068,362,377,362
			c24.813,0,45,20.187,45,45S401.813,452,377,452z M452,392c-0.51,0-1.014-0.039-1.521-0.064
			c-3.483-17.014-12.748-31.946-25.641-42.651C429.685,339.026,440.202,332,452,332c16.542,0,30,13.458,30,30S468.542,392,452,392z
			 M467,302c-8.271,0-15-6.729-15-15s6.729-15,15-15s15,6.729,15,15S475.271,302,467,302z"/>
	</g>
</g>
<g>
</g>
<g>
</g>
<g>
</g>
<g>
</g>
<g>
</g>
<g>
</g>
<g>
</g>
<g>
</g>
<g>
</g>
<g>
</g>
<g>
</g>
<g>
</g>
<g>
</g>
<g>
</g>
<g>
</g>
</svg>
